<?xml version="1.0" standalone="no"?>
<!DOCTYPE svg PUBLIC "-//W3C//DTD SVG 1.1//EN" "http://www.w3.org/Graphics/SVG/1.1/DTD/svg11.dtd" >
<svg xmlns="http://www.w3.org/2000/svg">
<metadata></metadata>
<defs>
<font id="superspitze_groteskregular" horiz-adv-x="1241" >
<font-face units-per-em="2048" ascent="1536" descent="-512" />
<missing-glyph horiz-adv-x="512" />
<glyph unicode="&#xfb01;" horiz-adv-x="1132" d="M61 754v196h125v183q0 85 24 155.5t64.5 117.5t96 80t116.5 47.5t127 14.5q137 0 253 -63t153 -168l-184 -90q-49 112 -207 112q-92 0 -157.5 -60t-65.5 -175v-154h530l78 -78v-872h-219v754h-389v-754h-220v754h-125z" />
<glyph unicode="&#xfb02;" horiz-adv-x="1179" d="M61 754v196h123v183q0 108 33 190.5t89 130t124 71t145 23.5q50 0 80 -10l-30 -201q-13 2 -31 2q-191 0 -191 -235v-154h152v-196h-152v-754h-219v754h-123zM774 94v1368l72 74h151v-1323h84v-213h-215z" />
<glyph unicode="&#xfb03;" horiz-adv-x="1705" d="M61 754v196h123v183q0 108 33 190.5t89 130t124 71t145 23.5q59 0 89 -12l-70 -197q-191 0 -191 -235v-154h357v183q0 85 24 155.5t64.5 117.5t96 80t116.5 47.5t127 14.5q137 0 252.5 -63t152.5 -168l-184 -90q-49 112 -207 112q-92 0 -157.5 -60t-65.5 -175v-154h530 l78 -78v-872h-219v754h-389v-754h-219v754h-357v-754h-219v754h-123z" />
<glyph unicode="&#xfb04;" horiz-adv-x="1722" d="M61 754v196h123v183q0 108 33 190.5t89 130t124 71t145 23.5q59 0 89 -12l-70 -197q-191 0 -191 -235v-154h355v183q0 108 33 190.5t89 130t124 71t145 23.5q50 0 80 -10l-31 -201q-13 2 -31 2q-87 0 -138.5 -52.5t-51.5 -182.5v-154h151v-196h-151v-754h-219v754h-355 v-754h-219v754h-123zM1317 94v1368l72 74h151v-1323h84v-213h-215z" />
<glyph horiz-adv-x="0" />
<glyph horiz-adv-x="0" />
<glyph horiz-adv-x="682" />
<glyph unicode="&#xd;" horiz-adv-x="675" />
<glyph unicode=" "  horiz-adv-x="512" />
<glyph unicode="&#x09;" horiz-adv-x="512" />
<glyph unicode="&#xa0;" horiz-adv-x="512" />
<glyph unicode="!" horiz-adv-x="741" d="M223 117q0 62 42.5 105.5t103.5 43.5t105 -44t44 -105t-43.5 -103.5t-105.5 -42.5q-61 0 -103.5 42.5t-42.5 103.5zM254 401v1061h233v-1061h-233z" />
<glyph unicode="&#x22;" horiz-adv-x="702" d="M82 995v541h258l-80 -541h-178zM403 995v541h259l-80 -541h-179z" />
<glyph unicode="#" horiz-adv-x="1495" d="M41 408v163h313l86 318h-268v162h311l103 383h157v-76l-81 -307h376l103 383h157v-76l-84 -307h240v-162h-280l-87 -318h236v-163h-279l-110 -408h-158v76l90 332h-377l-110 -408h-158v76l90 332h-270zM532 571h377l84 318h-375z" />
<glyph unicode="$" horiz-adv-x="1292" d="M102 332l191 69q22 -75 98 -126.5t178 -69.5v440q-69 22 -121 43t-109 57t-93 79t-60 107.5t-24 143.5q0 92 34.5 167.5t93 125t129.5 80.5t150 41v139h160v-141q255 -27 381 -205l-158 -137q-32 44 -91 74.5t-132 42.5v-437q45 -13 74 -22t72 -24.5t71.5 -29.5t64.5 -35 t59.5 -43t48 -52.5t39 -64t23.5 -76.5t9 -91q0 -77 -28.5 -143t-74.5 -111.5t-107.5 -79.5t-124 -52.5t-126.5 -25.5v-157h-160v159q-168 21 -295.5 113.5t-171.5 241.5zM375 1085q0 -79 49.5 -126.5t144.5 -81.5v387q-85 -14 -139.5 -62.5t-54.5 -116.5zM729 201 q44 7 82.5 20t75.5 35t58.5 57t21.5 80q0 76 -60.5 120.5t-177.5 82.5v-395z" />
<glyph unicode="%" horiz-adv-x="1226" d="M61 0v39l943 1423h161v-37l-942 -1425h-162zM66 1200q0 120 84 202.5t202 82.5q117 0 200 -82.5t83 -202.5t-83.5 -203.5t-199.5 -83.5q-118 0 -202 83t-84 204zM211 1200q0 -60 40.5 -102.5t100.5 -42.5q58 0 97.5 43t39.5 102q0 60 -39 103t-98 43q-60 0 -100.5 -43 t-40.5 -103zM592 264q0 120 84.5 202.5t202.5 82.5q117 0 199.5 -82.5t82.5 -202.5q0 -121 -83 -204t-199 -83q-118 0 -202.5 83.5t-84.5 203.5zM731 264q0 -63 42.5 -108t105.5 -45q61 0 102 45t41 108t-40.5 108.5t-102.5 45.5q-63 0 -105.5 -45.5t-42.5 -108.5z" />
<glyph unicode="&#x26;" horiz-adv-x="1642" d="M102 496q0 164 97.5 296.5t253.5 190.5l-226 266v213h893v-221h-585l538 -655l164 389h295v-199h-152l-143 -354l303 -348v-74h-244l-176 197q-46 -55 -86 -91.5t-95.5 -69.5t-125.5 -49t-158 -16q-150 0 -277.5 70.5t-201.5 191.5t-74 263zM324 485q0 -130 96.5 -215.5 t230.5 -85.5q85 1 147 25t96.5 58t70.5 89l-359 430q-116 -12 -199 -101t-83 -200z" />
<glyph unicode="'" horiz-adv-x="380" d="M82 995v541h258l-80 -541h-178z" />
<glyph unicode="(" horiz-adv-x="663" d="M113 717q0 137 26 267t70 235t103.5 193.5t126 150.5t136.5 98l68 -117q-152 -99 -260.5 -331.5t-108.5 -495.5t108.5 -496t260.5 -332l-68 -116q-70 36 -136.5 98t-126 150.5t-103.5 193.5t-70 235t-26 267z" />
<glyph unicode=")" horiz-adv-x="663" d="M20 -111q152 99 260.5 332t108.5 496t-108.5 495.5t-260.5 331.5l68 117q88 -46 170 -133t148 -206t105.5 -277t39.5 -328t-39.5 -328t-105.5 -277t-148 -206t-170 -133z" />
<glyph unicode="*" horiz-adv-x="927" d="M0 1137l53 163l330 -112l-6 350h174l-6 -350l332 115l51 -164l-334 -105l211 -278l-141 -101l-199 289l-199 -291l-141 103l209 278z" />
<glyph unicode="+" horiz-adv-x="1011" d="M61 573v197h347v338h196v-338h346v-197h-346v-340h-196v340h-347z" />
<glyph unicode="," horiz-adv-x="505" d="M-41 -270l178 471h250v-66l-274 -473h-154v68z" />
<glyph unicode="-" horiz-adv-x="847" d="M127 457v196h594v-196h-594z" />
<glyph unicode="." horiz-adv-x="403" d="M41 131q0 66 47 114t113 48t113.5 -48t47.5 -114t-47.5 -113t-113.5 -47t-113 47t-47 113z" />
<glyph unicode="/" horiz-adv-x="841" d="M31 -25l637 1559h143v-76l-637 -1558h-143v75z" />
<glyph unicode="0" horiz-adv-x="1363" d="M92 702q0 112 22 217t70 199t116 164t166.5 111t215.5 41t215 -41t166.5 -111t116 -164t70 -199t22.5 -217t-22.5 -217t-70 -199t-116 -163.5t-166.5 -110.5t-215 -41t-215.5 41t-166.5 110.5t-116 163.5t-70 199t-22 217zM317 702q0 -95 21 -183.5t63 -164t115 -121 t166 -45.5t165.5 45.5t114.5 121t63.5 164t21.5 183.5t-21.5 183.5t-63.5 164t-114.5 121.5t-165.5 46t-166 -46t-115 -121.5t-63 -164t-21 -183.5z" />
<glyph unicode="1" horiz-adv-x="655" d="M80 1210v209h391v-1419h-219v1210h-172z" />
<glyph unicode="2" horiz-adv-x="1087" d="M82 0v172l561 647q107 121 107 211q0 89 -62.5 149t-152.5 60q-88 0 -146.5 -62t-58.5 -147q0 -43 16 -80q-1 0 -209 -82q-33 73 -33 162q0 77 28 149t80.5 129t136.5 91.5t186 34.5q201 0 320.5 -112t119.5 -292q0 -92 -36.5 -172t-119.5 -172l-432 -475h617v-211h-922z " />
<glyph unicode="3" horiz-adv-x="1091" d="M51 197l185 118q35 -59 105.5 -93t150.5 -34q110 0 193 69.5t83 172.5q0 108 -77 178t-197 70q-109 0 -148 -10l-63 170l376 372h-538v209h833v-178l-385 -389q182 -21 301 -135t119 -287q0 -126 -67.5 -232t-182 -166.5t-247.5 -60.5q-153 0 -268 62t-173 164z" />
<glyph unicode="4" horiz-adv-x="1189" d="M61 279v194l730 946h174v-946h174v-194h-174v-279h-220v279h-684zM295 473h450v606z" />
<glyph unicode="5" horiz-adv-x="1169" d="M92 133q51 80 119 178q138 -123 321 -123q78 0 149 27t122 89t51 147q0 65 -29.5 116.5t-77 82.5t-103 47t-112.5 16q-135 0 -251 -58l-140 140l99 624h745v-209h-579l-52 -327q114 43 228 43q134 0 246.5 -58.5t180.5 -168t68 -248.5q0 -218 -143.5 -350t-398.5 -132 q-93 0 -173 17.5t-133 46t-84 52.5t-53 48z" />
<glyph unicode="6" horiz-adv-x="1054" d="M61 438q0 136 64 240l455 741h241l-334 -536q27 6 58 6q114 0 215.5 -54.5t167 -159.5t65.5 -237q0 -128 -64 -236t-171 -169.5t-232 -61.5q-192 0 -328.5 136t-136.5 331zM283 438q0 -101 71 -175.5t172 -74.5q103 0 173.5 74.5t70.5 175.5q0 103 -70 176.5t-174 73.5 t-173.5 -73.5t-69.5 -176.5z" />
<glyph unicode="7" horiz-adv-x="993" d="M47 1079v340h946v-209l-678 -1210h-249l684 1210h-484v-131h-219z" />
<glyph unicode="8" horiz-adv-x="1155" d="M102 418q0 110 51.5 202t139.5 138q-64 42 -101.5 116.5t-37.5 161.5q0 167 125.5 282.5t300.5 115.5q174 0 299 -115.5t125 -282.5q0 -84 -38.5 -159.5t-101.5 -118.5q86 -46 137.5 -138t51.5 -202q0 -187 -140 -317t-335 -130t-335.5 130t-140.5 317zM328 418 q0 -97 71.5 -167.5t178.5 -70.5q104 0 176.5 70.5t72.5 167.5q0 99 -71 169t-178 70q-108 0 -179 -70t-71 -169zM385 1036q0 -76 55.5 -132t137.5 -56q80 0 135 56t55 132q0 77 -54.5 133t-135.5 56q-82 0 -137.5 -56t-55.5 -133z" />
<glyph unicode="9" horiz-adv-x="1046" d="M82 985q0 124 62.5 228t167 162.5t227.5 58.5t227.5 -58.5t166.5 -162.5t62 -228q0 -122 -75 -248l-451 -737h-242l344 557q-16 -2 -51 -2q-116 0 -215.5 52t-161 151.5t-61.5 226.5zM305 985q0 -99 66.5 -169.5t167.5 -70.5t167 70.5t66 169.5t-67 170.5t-166 71.5 q-100 0 -167 -71.5t-67 -170.5z" />
<glyph unicode=":" horiz-adv-x="505" d="M92 131q0 66 47.5 114t114.5 48q65 0 112.5 -48t47.5 -114t-47.5 -113t-112.5 -47q-67 0 -114.5 47t-47.5 113zM92 788q0 68 47 115t115 47q65 0 112.5 -47.5t47.5 -114.5q0 -66 -47.5 -112.5t-112.5 -46.5q-67 0 -114.5 46.5t-47.5 112.5z" />
<glyph unicode=";" horiz-adv-x="581" d="M4 -270l178 471h250v-66l-274 -473h-154v68zM150 786q0 68 47 116t114 48q66 0 113 -48t47 -116q0 -66 -47 -112.5t-113 -46.5q-67 0 -114 46.5t-47 112.5z" />
<glyph unicode="&#x3c;" horiz-adv-x="1011" d="M41 610v125l889 463v-203l-654 -321l654 -324v-203z" />
<glyph unicode="=" horiz-adv-x="1218" d="M164 274v197h889v-197h-889zM164 698v197h889v-197h-889z" />
<glyph unicode="&#x3e;" horiz-adv-x="1011" d="M82 147v203l653 324l-653 321v203l889 -463v-125z" />
<glyph unicode="?" horiz-adv-x="1071" d="M137 1118q0 161 115 268t287 107t284.5 -107t112.5 -268q0 -68 -25 -132t-62 -112t-81 -104t-81 -106t-62 -119t-25 -144h-233q0 81 18 153.5t47 126.5t63.5 102.5t69.5 90t64 80t47 80.5t18 84q0 65 -41.5 112.5t-113.5 47.5q-73 0 -118.5 -48t-45.5 -112t57 -133 l-156 -154q-66 48 -102.5 130.5t-36.5 156.5zM338 117q0 62 42 105.5t103 43.5q62 0 106 -44t44 -105t-44 -103.5t-106 -42.5q-61 0 -103 42t-42 104z" />
<glyph unicode="@" horiz-adv-x="2086" d="M92 442q0 164 50 314.5t141 268.5t211.5 206t268 135t304.5 47q195 0 367 -74t295.5 -203.5t194.5 -313t71 -394.5q0 -208 -35 -315l-113 -113h-497l-68 68q-143 -91 -281 -91q-184 0 -310 135.5t-126 336.5q0 203 126 339t310 136q122 0 236 -56l82 82h127v-757h328 q20 130 20 235q0 164 -50.5 310t-142.5 255t-230 172.5t-304 63.5q-167 0 -312 -63.5t-245 -171t-157.5 -251t-57.5 -301.5q0 -157 57.5 -300.5t157.5 -250t245 -170t312 -63.5q217 0 403 113l105 -158q-234 -137 -508 -137q-157 0 -304.5 46.5t-268 134t-211.5 205 t-141 267.5t-50 313zM764 449q0 -128 65 -207.5t189 -79.5q122 0 185 79.5t63 207.5t-64.5 207t-183.5 79q-123 0 -188.5 -79t-65.5 -207z" />
<glyph unicode="A" horiz-adv-x="1531" d="M41 0l580 1462h290l580 -1462h-256l-125 326h-688l-125 -326h-256zM508 547h516l-258 674z" />
<glyph unicode="B" horiz-adv-x="1382" d="M184 0v1462h531q102 0 184.5 -22.5t137 -60.5t92 -89.5t53.5 -107t16 -115.5q0 -98 -46.5 -175.5t-129.5 -125.5q114 -48 181 -141t67 -224q0 -179 -124 -290t-358 -111h-604zM414 221h327q293 0 293 211q0 90 -59 152.5t-187 62.5h-374v-426zM414 860h307 q123 0 189.5 43t66.5 146q0 83 -67 137.5t-210 54.5h-286v-381z" />
<glyph unicode="C" horiz-adv-x="1449" d="M92 731q0 159 61 301.5t162.5 243t238 159t282.5 58.5q147 0 281 -55.5t237 -155.5l-176 -152q-139 136 -342 136q-102 0 -194.5 -43t-157.5 -115t-103.5 -170.5t-38.5 -206.5q0 -140 64.5 -263t179 -197t250.5 -74q110 0 204 41t160 114l178 -145q-103 -112 -243.5 -174 t-298.5 -62q-146 0 -282.5 58.5t-238 158.5t-162.5 242.5t-61 300.5z" />
<glyph unicode="D" horiz-adv-x="1443" d="M184 0v1462h480q110 0 210.5 -29t188 -89t151.5 -145.5t101 -205.5t37 -262q0 -176 -56.5 -317.5t-152.5 -230.5t-218.5 -136t-260.5 -47h-480zM416 223h233q73 0 137.5 15t126 51.5t106 93t71 146t26.5 202.5t-26.5 202.5t-71 146.5t-106 94t-126 52t-137.5 15h-233 v-1018z" />
<glyph unicode="E" horiz-adv-x="1349" d="M184 0v1462h1053v-221h-823v-373h778v-221h-778v-424h823v-223h-1053z" />
<glyph unicode="F" horiz-adv-x="1249" d="M184 0v1462h963v-221h-731v-410h688v-221h-688v-610h-232z" />
<glyph unicode="G" horiz-adv-x="1632" d="M92 731q0 208 100 383.5t271.5 277t374.5 101.5q296 0 528 -213l-162 -172q-152 158 -366 158q-144 0 -259.5 -75.5t-177 -197t-61.5 -262.5q0 -137 61.5 -258.5t177.5 -198.5t259 -77q139 0 232.5 44.5t164.5 129.5v184h-303v221h536v-508q-270 -297 -630 -297 q-207 0 -377.5 98t-269.5 272.5t-99 389.5z" />
<glyph unicode="H" horiz-adv-x="1589" d="M184 0v1462h234v-620h753v620h234v-1462h-234v621h-753v-621h-234z" />
<glyph unicode="I" horiz-adv-x="643" d="M205 0v1462h233v-1462h-233z" />
<glyph unicode="J" horiz-adv-x="1085" d="M20 240l197 112q83 -162 225 -162q114 0 173 71t59 192v1009h227v-1013q0 -224 -119.5 -351t-339.5 -127q-153 0 -261.5 71t-160.5 198z" />
<glyph unicode="K" horiz-adv-x="1359" d="M184 0v1462h236v-712l555 712h299l-490 -608l555 -854h-286l-428 664l-205 -258v-406h-236z" />
<glyph unicode="L" horiz-adv-x="1167" d="M184 0v1462h236v-1239h727v-223h-963z" />
<glyph unicode="M" horiz-adv-x="1894" d="M184 0v1462h238l526 -741l525 741h237v-1462h-231v1073l-451 -641h-162l-446 637v-1069h-236z" />
<glyph unicode="N" horiz-adv-x="1630" d="M184 0v1462h281l747 -1140v1140h234v-1462h-303l-723 1104v-1104h-236z" />
<glyph unicode="O" horiz-adv-x="1712" d="M92 731q0 213 104 389t279 274.5t381 98.5t381 -98.5t279 -274.5t104 -389t-104 -388.5t-279 -273.5t-381 -98t-381 98t-279 273.5t-104 388.5zM342 731q0 -143 65 -265t183.5 -195.5t265.5 -73.5t265.5 73.5t183.5 195.5t65 265t-65 265t-183.5 196t-265.5 74 t-265.5 -74t-183.5 -196t-65 -265z" />
<glyph unicode="P" horiz-adv-x="1286" d="M184 0v1462h527q101 0 184 -26t137.5 -69t92 -99.5t53.5 -115t16 -118.5q0 -87 -30.5 -163t-89 -134.5t-152 -92.5t-211.5 -34h-295v-610h-232zM416 831h280q123 0 200 50t77 153q0 40 -15 75t-46 65.5t-86.5 48.5t-129.5 18h-280v-410z" />
<glyph unicode="Q" horiz-adv-x="1753" d="M92 731q0 213 104 389t278.5 274.5t379.5 98.5q206 0 381 -98.5t279 -274.5t104 -389q0 -248 -139 -442l57 -58h115v-231h-211l-123 123q-204 -152 -463 -152q-205 0 -379.5 98t-278.5 273.5t-104 388.5zM342 731q0 -143 64.5 -265t182.5 -195.5t265 -73.5q164 0 297 96 l-143 145l163 162l132 -133q65 118 65 264q0 143 -64.5 265t-183.5 196t-266 74t-265 -74t-182.5 -196t-64.5 -265z" />
<glyph unicode="R" horiz-adv-x="1370" d="M184 0v1462h527q101 0 184 -26t137.5 -69t92 -99.5t53.5 -115t16 -118.5q0 -121 -56 -217.5t-165 -150.5l377 -666h-269l-338 610h-327v-610h-232zM416 831h280q123 0 200 50t77 153q0 40 -15 75t-46 65.5t-86.5 48.5t-129.5 18h-280v-410z" />
<glyph unicode="S" horiz-adv-x="1421" d="M102 332l213 69q31 -92 149 -148t261 -56q51 0 105.5 9.5t110 30t91 61.5t35.5 95q0 49 -31 86t-83 61.5t-119 45t-142 40.5t-149.5 43t-141.5 57.5t-119 79.5t-83 113.5t-31 155.5q0 102 48 184t126 131.5t170.5 76t187.5 26.5q180 0 315.5 -55.5t213.5 -155.5 l-176 -137q-49 59 -145.5 92t-213.5 33q-121 0 -204.5 -51.5t-83.5 -133.5q0 -50 25.5 -89.5t69.5 -65t102.5 -47.5t124 -37.5t135 -36t135 -41.5t124 -55.5t102.5 -76.5t69.5 -106t25.5 -143q0 -86 -39 -157.5t-101.5 -118.5t-142 -79.5t-158 -46.5t-153.5 -14 q-142 0 -269 41.5t-222 124.5t-132 195z" />
<glyph unicode="T" horiz-adv-x="1091" d="M20 1241v221h1051v-221h-407v-1241h-236v1241h-408z" />
<glyph unicode="U" horiz-adv-x="1509" d="M184 590v872h228v-868q0 -103 28.5 -181.5t77.5 -124.5t109 -68.5t129 -22.5t129 22.5t109 68.5t77.5 124.5t28.5 181.5v868h225v-872q0 -155 -42.5 -275t-119.5 -194.5t-179.5 -112t-227.5 -37.5t-228 37.5t-180.5 112t-120.5 194.5t-43 275z" />
<glyph unicode="V" horiz-adv-x="1376" d="M20 1462h259l409 -1194l410 1194h258l-522 -1462h-291z" />
<glyph unicode="W" horiz-adv-x="1929" d="M31 1462h243l281 -1173l283 1173h254l280 -1173l283 1173h243l-358 -1462h-321l-254 1077l-254 -1077h-322z" />
<glyph unicode="X" horiz-adv-x="1261" d="M20 0l463 741l-450 721h274l324 -528l323 528h275l-451 -721l463 -741h-280l-330 537l-330 -537h-281z" />
<glyph unicode="Y" horiz-adv-x="1341" d="M20 1462h275l377 -612l375 612h274l-533 -852v-610h-235v610z" />
<glyph unicode="Z" horiz-adv-x="1327" d="M102 0v213l809 1028h-780v221h1079v-213l-813 -1036h828v-213h-1123z" />
<glyph unicode="[" horiz-adv-x="618" d="M164 -254v1970h434v-151h-274v-1667h274v-152h-434z" />
<glyph unicode="\" horiz-adv-x="841" d="M31 1458v76h143l637 -1559v-75h-143z" />
<glyph unicode="]" horiz-adv-x="618" d="M20 -102h275v1667h-275v151h435v-1970h-435v152z" />
<glyph unicode="^" horiz-adv-x="882" d="M61 868l318 594h125l317 -594h-203l-178 332l-178 -332h-201z" />
<glyph unicode="_" horiz-adv-x="892" d="M61 0h770v-168h-770v168z" />
<glyph unicode="`" horiz-adv-x="1075" d="M299 1370q0 36 20.5 68t57.5 45q35 10 43 10q60 0 98 -47q124 -146 242 -279l-72 -73q-297 154 -328 168q-29 14 -45 45t-16 63z" />
<glyph unicode="a" d="M72 475q0 134 64.5 248.5t177 182t245.5 67.5q156 0 279 -115l92 92h125v-737h84v-213h-209l-92 92q-110 -115 -277 -115q-134 0 -247 68t-177.5 182.5t-64.5 247.5zM295 475q0 -121 82 -204t201 -83q117 0 196.5 82.5t79.5 204.5t-79.5 204.5t-196.5 82.5 q-119 0 -201 -83t-82 -204z" />
<glyph unicode="b" horiz-adv-x="1218" d="M164 0v1462l74 74h145v-678q115 115 276 115q133 0 246 -67.5t177.5 -182t64.5 -248.5q0 -133 -64.5 -247.5t-178 -182.5t-247.5 -68q-166 0 -276 115l-92 -92h-125zM365 475q0 -122 79.5 -204.5t196.5 -82.5q120 0 201.5 82.5t81.5 204.5t-81.5 204.5t-201.5 82.5 q-117 0 -196.5 -82.5t-79.5 -204.5z" />
<glyph unicode="c" horiz-adv-x="968" d="M72 475q0 137 67.5 252t181.5 180.5t246 65.5q99 0 190.5 -39t139.5 -107l-152 -153q-31 38 -77.5 63t-100.5 25q-116 0 -195 -85.5t-79 -201.5q0 -115 79 -201t195 -86q101 0 181 91l170 -134q-69 -77 -160 -122.5t-191 -45.5q-131 0 -244.5 65.5t-182 181t-68.5 251.5z " />
<glyph unicode="d" d="M72 475q0 134 64.5 248.5t177 182t245.5 67.5q162 0 277 -115v604l73 74h146v-1323h84v-213h-209l-92 92q-110 -115 -277 -115q-134 0 -247 68t-177.5 182.5t-64.5 247.5zM295 475q0 -121 82 -204t201 -83q117 0 196.5 82.5t79.5 204.5t-79.5 204.5t-196.5 82.5 q-119 0 -201 -83t-82 -204z" />
<glyph unicode="e" horiz-adv-x="1044" d="M72 473q0 133 59 247.5t166.5 183.5t239.5 69q98 0 182 -39.5t140 -105.5t88.5 -151.5t35.5 -178.5l-82 -80h-608q9 -104 79.5 -170t166.5 -66q64 0 123.5 37t95.5 96l180 -98q-61 -104 -164 -172t-235 -68q-133 0 -241 68.5t-167 182t-59 245.5zM303 592h461 q-11 80 -75.5 133t-151.5 53t-152 -52t-82 -134z" />
<glyph unicode="f" horiz-adv-x="645" d="M61 754v196h125v183q0 87 22 157.5t59 118t88 79.5t106.5 46t116.5 14q156 0 272 -82v-45l-115 -114q-60 32 -139 32q-87 0 -138.5 -52.5t-51.5 -182.5v-154h151v-196h-151v-754h-220v754h-125z" />
<glyph unicode="g" horiz-adv-x="1218" d="M72 475q0 134 64.5 248.5t177 182t245.5 67.5q158 0 277 -115l92 92h127v-999q0 -97 -28.5 -178t-76.5 -135t-112.5 -91t-134 -54t-142.5 -17q-138 0 -249.5 58t-157.5 159l190 98q30 -48 89.5 -75t127.5 -27q71 0 131.5 28.5t102 95t41.5 162.5v115q-119 -113 -275 -113 q-134 0 -247 68t-177.5 182.5t-64.5 247.5zM295 475q0 -121 82 -204t201 -83q117 0 196.5 82.5t79.5 204.5t-79.5 204.5t-196.5 82.5q-119 0 -201 -83t-82 -204z" />
<glyph unicode="h" horiz-adv-x="1112" d="M164 0v1462l74 74h145v-668q112 97 246 97q67 0 126 -22.5t108 -68t77.5 -124t28.5 -181.5v-569h-224v569q0 91 -47 138t-125 47q-81 0 -135.5 -43.5t-54.5 -106.5v-604h-219z" />
<glyph unicode="i" horiz-adv-x="546" d="M102 754v196h224l77 -78v-872h-219v754h-82zM121 1335q0 65 45.5 111.5t109.5 46.5t111 -46.5t47 -111.5q0 -64 -46.5 -109.5t-111.5 -45.5q-64 0 -109.5 45t-45.5 110z" />
<glyph unicode="j" horiz-adv-x="571" d="M-197 -362l191 98q27 -43 98 -43q48 0 82.5 36t34.5 101v924h-127v196h268l78 -78v-1036q0 -187 -91.5 -273.5t-242.5 -86.5q-87 0 -162.5 42.5t-128.5 119.5zM137 1335q0 65 46 111.5t110 46.5q65 0 111.5 -46.5t46.5 -111.5q0 -64 -46.5 -109.5t-111.5 -45.5 t-110.5 45.5t-45.5 109.5z" />
<glyph unicode="k" horiz-adv-x="1054" d="M164 0v1462l72 74h147v-950l334 364h268l-326 -362l396 -588h-256l-283 428l-133 -149v-279h-219z" />
<glyph unicode="l" horiz-adv-x="569" d="M154 94v1368l71 74h152v-1323h84v-213h-215z" />
<glyph unicode="m" horiz-adv-x="1695" d="M102 754v196h177l92 -92q134 111 276 111q78 0 146 -32.5t112 -96.5q65 60 146.5 94.5t167.5 34.5q67 0 125.5 -23.5t105.5 -70.5t74.5 -124.5t27.5 -177.5v-573h-219v573q0 92 -45.5 142.5t-122.5 50.5q-84 0 -135 -44.5t-51 -113.5v-608h-217v573q0 92 -46.5 142.5 t-121.5 50.5q-82 0 -135 -43.5t-53 -108.5v-614h-220v754h-84z" />
<glyph unicode="n" horiz-adv-x="1132" d="M102 754v196h174l91 -88q132 107 282 107q67 0 126 -22.5t108 -68t77.5 -124t28.5 -181.5v-573h-221v573q0 90 -48 137.5t-126 47.5q-81 0 -136 -44.5t-55 -109.5v-604h-219v754h-82z" />
<glyph unicode="o" horiz-adv-x="1136" d="M72 475q0 103 40 195.5t107 158t158.5 104t191.5 38.5q133 0 246.5 -64.5t181.5 -179.5t68 -252t-68 -252.5t-181.5 -180.5t-246.5 -65q-100 0 -191.5 38.5t-158.5 104.5t-107 159t-40 196zM295 475q0 -118 78.5 -202.5t195.5 -84.5q115 0 194 85t79 202t-78 201t-195 84 q-118 0 -196 -83.5t-78 -201.5z" />
<glyph unicode="p" d="M102 754v196h181l106 -108q122 131 293 131q133 0 245.5 -67.5t177 -182t64.5 -248.5q0 -133 -64.5 -247.5t-177 -182.5t-245.5 -68q-163 0 -276 113v-602h-220v1266h-84zM387 475q0 -122 80.5 -204.5t198.5 -82.5q119 0 200.5 83t81.5 204t-81.5 204t-200.5 83 q-118 0 -198.5 -82.5t-80.5 -204.5z" />
<glyph unicode="q" horiz-adv-x="1218" d="M72 475q0 134 64.5 248.5t177 182t245.5 67.5q158 0 277 -115l92 92h127v-1462h-219v602q-119 -113 -275 -113q-134 0 -247 68t-177.5 182.5t-64.5 247.5zM295 475q0 -121 82 -204t201 -83q117 0 196.5 82.5t79.5 204.5t-79.5 204.5t-196.5 82.5q-119 0 -201 -83 t-82 -204z" />
<glyph unicode="r" horiz-adv-x="755" d="M102 754v196h177l104 -104q37 54 100 88.5t138 34.5q45 0 94 -15l-64 -229q-35 12 -69 12q-70 0 -123 -43.5t-53 -107.5v-586h-220v754h-84z" />
<glyph unicode="s" horiz-adv-x="983" d="M82 223l205 62q17 -51 81 -77t136 -26q70 0 120 24.5t50 72.5q0 15 -10.5 27.5t-37 24t-46 18.5t-66 21t-68.5 21q-52 16 -91.5 32t-85 42.5t-74.5 57.5t-48.5 76.5t-19.5 100.5q0 65 32 118.5t84 86.5t114 50.5t126 17.5q111 0 209 -38t148 -104l-166 -116 q-43 35 -82 50t-96 15q-65 0 -105.5 -24t-40.5 -62q0 -15 6 -27t21 -23t28.5 -18.5t40 -16.5t44 -14.5t51.5 -15.5t53 -16q52 -16 89.5 -30.5t81.5 -39.5t71.5 -54.5t46 -73.5t18.5 -97q0 -73 -38 -130.5t-99 -91.5t-129.5 -51.5t-136.5 -17.5q-95 0 -175.5 24.5t-146 81 t-94.5 140.5z" />
<glyph unicode="t" horiz-adv-x="626" d="M61 754v196h123v293l74 74h145v-367h152v-196h-152v-541h84v-213h-208l-95 94v660h-123z" />
<glyph unicode="u" horiz-adv-x="1107" d="M143 414v536h224v-536q0 -109 53.5 -167.5t134.5 -58.5t134.5 58.5t53.5 167.5v536h222v-536q0 -136 -57.5 -237t-149.5 -150.5t-203 -49.5q-112 0 -204 49.5t-150 150.5t-58 237z" />
<glyph unicode="v" horiz-adv-x="1046" d="M31 950h229l264 -717l264 717h228l-365 -950h-254z" />
<glyph unicode="w" horiz-adv-x="1531" d="M31 950h229l182 -717l222 717h204l224 -717l180 717h229l-262 -950h-283l-190 623l-188 -623h-283z" />
<glyph unicode="x" horiz-adv-x="997" d="M31 0l340 475l-340 475h256l213 -297l211 297h256l-340 -475l340 -475h-256l-211 295l-213 -295h-256z" />
<glyph unicode="y" horiz-adv-x="1073" d="M31 950h221l287 -743h22l258 743h223l-518 -1462h-223l180 512h-90z" />
<glyph unicode="z" horiz-adv-x="940" d="M82 0v166l479 588h-455v196h746v-168l-467 -573h473v-209h-776z" />
<glyph unicode="{" horiz-adv-x="501" d="M92 674v114q39 7 66.5 43.5t27.5 108.5v557q0 105 54.5 164t136.5 59q32 0 63 -8l-8 -119q-4 2 -14 2q-29 0 -50.5 -26.5t-21.5 -71.5v-557q0 -84 -28.5 -130.5t-86.5 -78.5q59 -33 87 -79.5t28 -129.5v-557q0 -45 21.5 -71.5t50.5 -26.5q10 0 14 2l8 -119q-31 -8 -63 -8 q-82 0 -136.5 59t-54.5 164v557q0 72 -27.5 108.5t-66.5 43.5z" />
<glyph unicode="|" horiz-adv-x="548" d="M195 -100v1634h159v-1634h-159z" />
<glyph unicode="}" horiz-adv-x="501" d="M61 -250l9 119q4 -2 14 -2q29 0 50.5 26.5t21.5 71.5v557q0 83 28 129.5t86 79.5q-58 32 -86 78.5t-28 130.5v557q0 45 -21.5 71.5t-50.5 26.5q-10 0 -14 -2l-9 119q31 8 64 8q82 0 136 -59t54 -164v-557q0 -71 28 -108t67 -44v-114q-39 -7 -67 -44t-28 -108v-557 q0 -105 -54 -164t-136 -59q-33 0 -64 8z" />
<glyph unicode="~" horiz-adv-x="1046" d="M102 444q0 121 71.5 186.5t170.5 65.5q62 0 127 -24.5t120.5 -49t94.5 -24.5q31 0 50 19t23.5 36.5t4.5 32.5h180q0 -114 -64 -185t-159 -71q-63 0 -190.5 50t-186.5 50q-74 0 -74 -86h-168z" />
<glyph unicode="&#xa1;" horiz-adv-x="663" d="M45 834q0 61 44 103t106 42q61 0 103 -41.5t42 -103.5t-42 -106t-103 -44t-105.5 44t-44.5 106zM76 -512v1061h233v-1061h-233z" />
<glyph unicode="&#xa2;" horiz-adv-x="1030" d="M102 741q0 179 112.5 314.5t281.5 171.5v155h159v-147q85 -9 158 -46t115 -95l-152 -154q-54 62 -121 80v-559q68 20 123 84l170 -133q-124 -141 -293 -164v-139h-159v145q-168 38 -281 173.5t-113 313.5zM324 741q0 -87 47 -160.5t125 -105.5v533q-78 -32 -125 -105.5 t-47 -161.5z" />
<glyph unicode="&#xa3;" horiz-adv-x="1136" d="M102 578v167h95v127q0 259 144.5 410.5t365.5 151.5q172 0 335 -88l-88 -195q-115 66 -237 66q-138 0 -221.5 -86.5t-83.5 -268.5v-117h264v-167h-264q0 -116 -21 -267l-18 -121h483v111h219v-301h-848l-98 96q8 27 10 43q58 226 58 439h-95z" />
<glyph unicode="&#xa4;" horiz-adv-x="1198" d="M102 190l142 134q-76 109 -76 241q0 128 76 238l-142 135l123 123l135 -143q109 75 240 75q126 0 238 -75l135 143l123 -123l-144 -135q78 -108 78 -238q0 -128 -76 -241l142 -134l-123 -122l-133 139q-113 -76 -240 -76q-129 0 -242 76l-133 -139zM352 565 q0 -101 73.5 -174.5t174.5 -73.5q99 0 171.5 73.5t72.5 174.5q0 98 -73 171t-171 73q-101 0 -174.5 -72.5t-73.5 -171.5z" />
<glyph unicode="&#xa5;" horiz-adv-x="1341" d="M20 1462h275l377 -612l375 612h274l-475 -729h266v-170h-324v-74h324v-163h-324v-326h-235v326h-330v163h330v74h-330v170h273z" />
<glyph unicode="&#xa6;" horiz-adv-x="548" d="M195 -102v626l129 129h30v-755h-159zM195 780v756h159v-627l-129 -129h-30z" />
<glyph unicode="&#xa7;" horiz-adv-x="1163" d="M123 637q0 182 192 278q-116 87 -116 271q0 155 111.5 252.5t262.5 97.5q49 0 97.5 -11t99.5 -37t91.5 -65t71 -99.5t40.5 -135.5l-221 -25q-10 75 -63.5 113.5t-117.5 38.5q-66 0 -109.5 -34t-43.5 -101q0 -55 34.5 -100.5t89 -78t121 -62.5t133 -62t121 -69t89 -92 t34.5 -122q0 -57 -16.5 -104t-48.5 -83t-55.5 -56t-61.5 -46q107 -96 107 -260q0 -157 -109.5 -253.5t-265.5 -96.5q-102 0 -190 41.5t-143.5 122.5t-55.5 186q0 84 55 150l203 -58q-31 -35 -31 -86q0 -66 49 -104.5t111 -38.5h4q66 2 109.5 39t43.5 104q0 55 -34.5 100.5 t-89 78t-121 62.5t-133 62t-121 69t-89 92t-34.5 122zM342 678q0 -37 21.5 -68t64 -58t85.5 -48t106 -51.5t106 -55.5q40 13 68 55t28 101q0 36 -21.5 67t-64.5 58t-86 48t-106 51t-105 54q-41 -11 -68.5 -53t-27.5 -100z" />
<glyph unicode="&#xa8;" horiz-adv-x="1054" d="M160 1266q0 62 42 105.5t103 43.5q62 0 106 -44t44 -105t-44 -104.5t-106 -43.5q-61 0 -103 43t-42 105zM600 1266q0 62 42 105.5t103 43.5q62 0 106 -44t44 -105t-44 -104.5t-106 -43.5q-61 0 -103 43t-42 105z" />
<glyph unicode="&#xa9;" horiz-adv-x="1646" d="M92 731q0 148 58 283.5t156 233.5t233.5 156t283.5 58t283.5 -58t233.5 -156t156 -233.5t58 -283.5t-58 -283.5t-156 -233.5t-233.5 -156t-283.5 -58t-283.5 58t-233.5 156t-156 233.5t-58 283.5zM252 731q0 -155 76.5 -286.5t208 -208t286.5 -76.5q116 0 222 45.5 t182.5 121.5t122 182t45.5 222t-45.5 222t-122 182.5t-182.5 122t-222 45.5t-222 -45.5t-182 -122t-121.5 -182.5t-45.5 -222zM444 729q0 112 55.5 207t149.5 149t203 54q82 0 156.5 -31.5t113.5 -87.5l-125 -127q-24 31 -62.5 51.5t-82.5 20.5q-95 0 -160 -70t-65 -166 q0 -93 65 -163t160 -70q84 0 147 73l140 -110q-123 -137 -287 -137q-165 0 -286.5 119.5t-121.5 287.5z" />
<glyph unicode="&#xaa;" horiz-adv-x="1030" d="M80 1090q0 164 113.5 280.5t275.5 116.5q120 0 223 -90l74 71h131v-569h68v-188h-179l-73 73q-31 -33 -97.5 -62.5t-144.5 -29.5q-163 0 -277 117.5t-114 280.5zM295 1090q0 -87 59 -147t144 -60t141.5 59.5t56.5 147.5t-56.5 147t-141.5 59t-144 -59.5t-59 -146.5z" />
<glyph unicode="&#xab;" horiz-adv-x="1097" d="M61 516l363 424h154v-68l-246 -356l246 -356v-68h-154zM500 516l362 424h154v-68l-246 -356l246 -356v-68h-154z" />
<glyph unicode="&#xac;" horiz-adv-x="1347" d="M82 698v197h1163v-518h-196v321h-967z" />
<glyph unicode="&#xad;" horiz-adv-x="847" d="M127 457v196h594v-196h-594z" />
<glyph unicode="&#xae;" horiz-adv-x="1646" d="M92 731q0 148 58 283.5t156 233.5t233.5 156t283.5 58t283.5 -58t233.5 -156t156 -233.5t58 -283.5t-58 -283.5t-156 -233.5t-233.5 -156t-283.5 -58t-283.5 58t-233.5 156t-156 233.5t-58 283.5zM252 731q0 -155 76.5 -286.5t208 -208t286.5 -76.5q116 0 222 45.5 t182.5 121.5t122 182t45.5 222t-45.5 222t-122 182.5t-182.5 122t-222 45.5t-222 -45.5t-182 -122t-121.5 -182.5t-45.5 -222zM530 311v819h324q85 0 148 -24t97.5 -64.5t51 -86.5t16.5 -97q0 -71 -32 -131.5t-97 -95.5l129 -269v-51h-151l-129 283h-197v-283h-160zM690 752 h187q56 0 93.5 31t37.5 81t-37.5 81.5t-93.5 31.5h-187v-225z" />
<glyph unicode="&#xaf;" horiz-adv-x="1452" d="M440 1630v164h576v-164h-576z" />
<glyph unicode="&#xb0;" horiz-adv-x="679" d="M41 1165q0 120 89 208.5t210 88.5t210 -88.5t89 -208.5q0 -123 -88.5 -212t-210.5 -89t-210.5 89t-88.5 212zM215 1165q0 -51 37 -88t88 -37q50 0 86.5 37t36.5 88q0 49 -36.5 86t-86.5 37q-51 0 -88 -36.5t-37 -86.5z" />
<glyph unicode="&#xb1;" horiz-adv-x="1011" d="M61 0v197h889v-197h-889zM61 662v196h347v338h196v-338h346v-196h-346v-340h-196v340h-347z" />
<glyph unicode="&#xb2;" horiz-adv-x="608" d="M41 1188q0 96 65.5 166.5t180.5 70.5q122 0 192 -70.5t70 -170.5q0 -87 -92 -193l-166 -188h260v-150h-494v121l262 287q40 43 56 69t16 54q0 36 -25.5 64t-76.5 28q-47 0 -69.5 -25t-22.5 -61q0 -48 28 -76l-102 -104q-82 64 -82 178z" />
<glyph unicode="&#xb3;" horiz-adv-x="628" d="M59 764l107 102q20 -30 58 -48.5t73 -18.5q58 0 90.5 30.5t32.5 69.5q0 38 -32.5 67t-90.5 29q-42 0 -70 -8l-45 105l168 184h-239v143h432v-129l-168 -178q85 -5 148 -68t63 -155q0 -124 -79.5 -186t-209.5 -62q-81 0 -146.5 36.5t-91.5 86.5z" />
<glyph unicode="&#xb4;" horiz-adv-x="1075" d="M270 1167q36 39 79 88.5t93 107t72 83.5q38 47 98 47q8 0 43 -10q35 -13 55.5 -45t20.5 -68q0 -32 -15 -63t-44 -45l-328 -168z" />
<glyph unicode="&#xb5;" horiz-adv-x="1150" d="M143 -512v1462h224v-536q0 -109 53.5 -167.5t134.5 -58.5t134.5 58.5t53.5 167.5v536h222v-737h84v-213h-166l-84 84q-94 -107 -244 -107q-99 0 -188 60v-549h-224z" />
<glyph unicode="&#xb6;" horiz-adv-x="1089" d="M61 1067q0 163 116.5 279t279.5 116h149v-1716h-149v928q-163 0 -279.5 115.5t-116.5 277.5zM733 -254v1716h275v-141h-125v-1575h-150z" />
<glyph unicode="&#xb7;" horiz-adv-x="468" d="M74 518q0 66 46.5 114t112.5 48q67 0 114.5 -48t47.5 -114q0 -68 -47.5 -115t-114.5 -47q-66 0 -112.5 47.5t-46.5 114.5z" />
<glyph unicode="&#xb8;" horiz-adv-x="620" d="M27 -350q1 1 69.5 25t75.5 30q8 -32 32.5 -48.5t53.5 -16.5q33 0 57.5 18t24.5 49q0 37 -24 57.5t-66 20.5q-4 0 -14 -1t-15 -1l-61 96l22 191h203l-43 -150q79 -8 133.5 -66t54.5 -145q0 -102 -75 -168.5t-189 -66.5q-87 0 -153.5 45.5t-85.5 130.5z" />
<glyph unicode="&#xb9;" horiz-adv-x="540" d="M94 653v144h94v479h-75v143h252v-622h81v-144h-352z" />
<glyph unicode="&#xba;" horiz-adv-x="956" d="M82 1090q0 166 117 280.5t280 114.5t279 -114.5t116 -280.5t-116 -281t-279 -115t-280 115t-117 281zM270 1090q0 -90 60 -155t149 -65q88 0 148.5 65.5t60.5 154.5t-60 154t-149 65t-149 -65t-60 -154z" />
<glyph unicode="&#xbb;" horiz-adv-x="1097" d="M82 92v68l246 356l-246 356v68h154l362 -424l-362 -424h-154zM520 92v68l246 356l-246 356v68h154l362 -424l-362 -424h-154z" />
<glyph unicode="&#xbc;" horiz-adv-x="1429" d="M92 0v20l1090 1442h178v-22l-1090 -1440h-178zM94 653v144h94v479h-75v143h252v-622h81v-144h-352zM641 115v75l412 576h192v-528h70v-123h-70v-115h-172v115h-432zM838 238h235v337z" />
<glyph unicode="&#xbd;" horiz-adv-x="1431" d="M92 0v20l1090 1442h178v-22l-1090 -1440h-178zM94 653v144h94v479h-75v143h252v-622h81v-144h-352zM905 535q0 96 65.5 166.5t180.5 70.5q122 0 192 -71t70 -171q0 -86 -92 -192l-166 -188h260v-150h-493v121l262 287q39 43 55 68.5t16 53.5q0 36 -25.5 64.5t-76.5 28.5 q-47 0 -69.5 -25t-22.5 -61q0 -47 29 -76l-103 -105q-82 64 -82 179z" />
<glyph unicode="&#xbe;" horiz-adv-x="1437" d="M53 764l107 102q20 -30 58 -48.5t73 -18.5q58 0 90.5 30.5t32.5 69.5q0 38 -32.5 67t-90.5 29q-42 0 -70 -8l-45 105l168 184h-240v143h433v-129l-168 -178q85 -5 148 -68t63 -155q0 -124 -79.5 -186t-209.5 -62q-81 0 -146.5 36.5t-91.5 86.5zM127 0v20l1090 1442h178 v-22l-1090 -1440h-178zM676 115v75l411 576h193v-528h70v-123h-70v-115h-172v115h-432zM872 238h236v337z" />
<glyph unicode="&#xbf;" horiz-adv-x="993" d="M-23 -150q0 68 25 132t62 112t81 104t81 106t62 119t25 144h234q0 -110 -34 -205t-82 -160t-96 -122t-82 -115t-34 -115q0 -64 41.5 -111.5t114.5 -47.5t118.5 48t45.5 111q0 64 -58 134l156 153q66 -48 102.5 -130.5t36.5 -156.5q0 -161 -114.5 -267.5t-286.5 -106.5 t-285 106.5t-113 267.5zM281 852q0 61 43.5 103t105.5 42t103.5 -41.5t41.5 -103.5t-42 -106t-103 -44t-105 44t-44 106z" />
<glyph unicode="&#xc0;" horiz-adv-x="1531" d="M41 0l580 1462h290l580 -1462h-256l-125 326h-688l-125 -326h-256zM508 547h516l-258 674zM537 1825q0 36 20 67.5t57 44.5q38 11 43 11q61 0 99 -47q147 -173 241 -279l-71 -74q-297 154 -328 168q-29 14 -45 45.5t-16 63.5z" />
<glyph unicode="&#xc1;" horiz-adv-x="1531" d="M41 0l580 1462h290l580 -1462h-256l-125 326h-688l-125 -326h-256zM508 547h516l-258 674zM535 1622q47 52 140 160t103 119q38 47 99 47q5 0 43 -11q35 -13 55 -44.5t20 -67.5q0 -32 -15 -63.5t-44 -45.5l-328 -168z" />
<glyph unicode="&#xc2;" horiz-adv-x="1531" d="M41 0l580 1462h290l580 -1462h-256l-125 326h-688l-125 -326h-256zM479 1610l197 305h180l197 -305l-97 -60l-190 222l-191 -222zM508 547h516l-258 674z" />
<glyph unicode="&#xc3;" horiz-adv-x="1531" d="M41 0l580 1462h290l580 -1462h-256l-125 326h-688l-125 -326h-256zM377 1722q2 7 7 19.5t24.5 43.5t44.5 55t70.5 43.5t99.5 19.5q60 0 165 -44t154 -44q34 0 61.5 17.5t38.5 34.5l11 17l108 -61q-2 -8 -7 -21t-24 -45.5t-43.5 -58t-68 -46t-94.5 -20.5q-69 0 -179.5 45 t-154.5 45q-39 0 -66.5 -18t-35.5 -36l-7 -17zM508 547h516l-258 674z" />
<glyph unicode="&#xc4;" horiz-adv-x="1531" d="M41 0l580 1462h290l580 -1462h-256l-125 326h-688l-125 -326h-256zM399 1749q0 62 42.5 105.5t103.5 43.5t105 -44t44 -105t-43.5 -104t-105.5 -43q-61 0 -103.5 42.5t-42.5 104.5zM508 547h516l-258 674zM840 1749q0 62 42 105.5t103 43.5q62 0 106 -44t44 -105 t-44 -104t-106 -43q-61 0 -103 42.5t-42 104.5z" />
<glyph unicode="&#xc5;" horiz-adv-x="1531" d="M41 0l557 1405q-68 68 -68 164t70 165.5t166 69.5t165.5 -69.5t69.5 -165.5q0 -94 -67 -164l557 -1405h-256l-125 326h-688l-125 -326h-256zM506 547h518l-258 674zM657 1569q0 -43 32.5 -75t76.5 -32t76 32t32 75q0 44 -32 76t-76 32t-76.5 -32t-32.5 -76z" />
<glyph unicode="&#xc6;" horiz-adv-x="1888" d="M41 0l537 1462h1198v-221h-828l137 -373h646v-221h-564l156 -424h453v-223h-611l-135 369h-614l-135 -369h-240zM498 592h450l-225 618z" />
<glyph unicode="&#xc7;" horiz-adv-x="1449" d="M92 731q0 159 61 301.5t162.5 243t238 159t282.5 58.5q147 0 281 -55.5t237 -155.5l-176 -152q-139 136 -342 136q-102 0 -194.5 -43t-157.5 -115t-103.5 -170.5t-38.5 -206.5q0 -140 64.5 -263t179 -197t250.5 -74q110 0 204 41t160 114l178 -145q-89 -96 -205.5 -155.5 t-248.5 -74.5l-17 -57q79 -8 134 -66t55 -145q0 -102 -75.5 -168.5t-189.5 -66.5q-87 0 -153.5 45.5t-85.5 130.5q1 1 69.5 25t75.5 30q8 -32 32.5 -48.5t53.5 -16.5q33 0 57.5 18t24.5 49q0 37 -24 57.5t-66 20.5q-4 0 -14 -1t-15 -1l-61 96l10 101q-131 17 -249 82 t-205 162.5t-138 229.5t-51 277z" />
<glyph unicode="&#xc8;" horiz-adv-x="1349" d="M184 0v1462h1053v-221h-823v-373h778v-221h-778v-424h823v-223h-1053zM444 1825q0 36 20.5 67.5t57.5 44.5q38 11 43 11q61 0 99 -47q147 -173 241 -279l-71 -74q-297 154 -328 168q-29 14 -45.5 45.5t-16.5 63.5z" />
<glyph unicode="&#xc9;" horiz-adv-x="1349" d="M184 0v1462h1053v-221h-823v-373h778v-221h-778v-424h823v-223h-1053zM444 1622q36 39 79 88.5t93 107t72 83.5q38 47 98 47q4 0 43 -11q35 -13 55.5 -45t20.5 -67q0 -32 -15 -63.5t-44 -45.5l-328 -168z" />
<glyph unicode="&#xca;" horiz-adv-x="1349" d="M184 0v1462h1053v-221h-823v-373h778v-221h-778v-424h823v-223h-1053zM389 1610l197 305h180l197 -305l-97 -60l-190 222l-191 -222z" />
<glyph unicode="&#xcb;" horiz-adv-x="1349" d="M184 0v1462h1053v-221h-823v-373h778v-221h-778v-424h823v-223h-1053zM352 1749q0 62 42.5 105.5t103.5 43.5q62 0 105.5 -44t43.5 -105t-43.5 -104t-105.5 -43q-61 0 -103.5 42.5t-42.5 104.5zM793 1749q0 62 42 105.5t103 43.5q62 0 105.5 -44t43.5 -105t-43.5 -104 t-105.5 -43q-61 0 -103 42.5t-42 104.5z" />
<glyph unicode="&#xcc;" horiz-adv-x="645" d="M90 1825q0 36 20.5 67.5t57.5 44.5q38 11 43 11q60 0 98 -47q124 -146 242 -279l-72 -74q-296 154 -327 168q-29 14 -45.5 45.5t-16.5 63.5zM205 0v1462h235v-1462h-235z" />
<glyph unicode="&#xcd;" horiz-adv-x="645" d="M96 1622q36 39 79 88.5t93 107t72 83.5q38 47 98 47q4 0 43 -11q35 -13 55.5 -45t20.5 -67q0 -32 -15 -63.5t-44 -45.5l-328 -168zM205 0v1462h235v-1462h-235z" />
<glyph unicode="&#xce;" horiz-adv-x="645" d="M37 1610l196 305h181l196 -305l-96 -60l-190 222l-191 -222zM205 0v1462h235v-1462h-235z" />
<glyph unicode="&#xcf;" horiz-adv-x="645" d="M-41 1749q0 62 42 105.5t103 43.5q62 0 106 -44t44 -105t-44 -104t-106 -43q-61 0 -103 42.5t-42 104.5zM205 0v1462h235v-1462h-235zM399 1749q0 62 42.5 105.5t103.5 43.5t105 -44t44 -105t-43.5 -104t-105.5 -43q-61 0 -103.5 42.5t-42.5 104.5z" />
<glyph unicode="&#xd0;" horiz-adv-x="1443" d="M55 664v182h131v616h478q139 0 262 -47t218.5 -136t151.5 -230.5t56 -317.5t-56 -317t-151.5 -230.5t-218.5 -136.5t-262 -47h-478v664h-131zM416 223h233q73 0 137.5 15t126 51.5t106 93t71 146t26.5 202.5t-26.5 202.5t-71 146.5t-106 94t-126 52t-137.5 15h-233v-395 h278v-182h-278v-441z" />
<glyph unicode="&#xd1;" horiz-adv-x="1630" d="M184 0v1462h281l747 -1140v1140h234v-1462h-303l-723 1104v-1104h-236zM414 1722q2 7 6.5 19.5t24 43.5t44.5 55t70.5 43.5t99.5 19.5q60 0 165.5 -44t154.5 -44q34 0 61.5 17.5t38.5 34.5l11 17l108 -61q-2 -8 -7 -21t-24 -45.5t-43.5 -58t-68 -46t-94.5 -20.5 q-69 0 -179.5 45t-154.5 45q-39 0 -66.5 -18t-34.5 -36l-8 -17z" />
<glyph unicode="&#xd2;" horiz-adv-x="1712" d="M92 731q0 213 104 389t279 274.5t381 98.5t381 -98.5t279 -274.5t104 -389t-104 -388.5t-279 -273.5t-381 -98t-381 98t-279 273.5t-104 388.5zM342 731q0 -143 65 -265t183.5 -195.5t265.5 -73.5t265.5 73.5t183.5 195.5t65 265t-65 265t-183.5 196t-265.5 74 t-265.5 -74t-183.5 -196t-65 -265zM625 1825q0 36 20 67.5t57 44.5q38 11 43 11q61 0 99 -47q147 -173 241 -279l-71 -74q-297 154 -328 168q-29 14 -45 45.5t-16 63.5z" />
<glyph unicode="&#xd3;" horiz-adv-x="1712" d="M92 731q0 213 104 389t279 274.5t381 98.5t381 -98.5t279 -274.5t104 -389t-104 -388.5t-279 -273.5t-381 -98t-381 98t-279 273.5t-104 388.5zM342 731q0 -143 65 -265t183.5 -195.5t265.5 -73.5t265.5 73.5t183.5 195.5t65 265t-65 265t-183.5 196t-265.5 74 t-265.5 -74t-183.5 -196t-65 -265zM625 1622q47 52 140 160t103 119q38 47 99 47q5 0 43 -11q35 -13 55 -44.5t20 -67.5q0 -32 -15 -63.5t-44 -45.5l-328 -168z" />
<glyph unicode="&#xd4;" horiz-adv-x="1712" d="M92 731q0 213 104 389t279 274.5t381 98.5t381 -98.5t279 -274.5t104 -389t-104 -388.5t-279 -273.5t-381 -98t-381 98t-279 273.5t-104 388.5zM342 731q0 -143 65 -265t183.5 -195.5t265.5 -73.5t265.5 73.5t183.5 195.5t65 265t-65 265t-183.5 196t-265.5 74 t-265.5 -74t-183.5 -196t-65 -265zM569 1610l197 305h180l197 -305l-96 -60l-191 222l-190 -222z" />
<glyph unicode="&#xd5;" horiz-adv-x="1712" d="M92 731q0 213 104 389t279 274.5t381 98.5t381 -98.5t279 -274.5t104 -389t-104 -388.5t-279 -273.5t-381 -98t-381 98t-279 273.5t-104 388.5zM342 731q0 -143 65 -265t183.5 -195.5t265.5 -73.5t265.5 73.5t183.5 195.5t65 265t-65 265t-183.5 196t-265.5 74 t-265.5 -74t-183.5 -196t-65 -265zM465 1722q2 7 7 19.5t24.5 43.5t44.5 55t70.5 43.5t99.5 19.5q60 0 165 -44t154 -44q34 0 61.5 17.5t38.5 34.5l11 17l108 -61q-2 -8 -7 -21t-24 -45.5t-43.5 -58t-68 -46t-94.5 -20.5q-69 0 -179.5 45t-154.5 45q-39 0 -66.5 -18 t-35.5 -36l-7 -17z" />
<glyph unicode="&#xd6;" horiz-adv-x="1712" d="M92 731q0 213 104 389t279 274.5t381 98.5t381 -98.5t279 -274.5t104 -389t-104 -388.5t-279 -273.5t-381 -98t-381 98t-279 273.5t-104 388.5zM342 731q0 -143 65 -265t183.5 -195.5t265.5 -73.5t265.5 73.5t183.5 195.5t65 265t-65 265t-183.5 196t-265.5 74 t-265.5 -74t-183.5 -196t-65 -265zM487 1749q0 62 42.5 105.5t103.5 43.5t105 -44t44 -105t-43.5 -104t-105.5 -43q-61 0 -103.5 42.5t-42.5 104.5zM928 1749q0 62 42 105.5t103 43.5q62 0 106 -44t44 -105t-44 -104t-106 -43q-61 0 -103 42.5t-42 104.5z" />
<glyph unicode="&#xd7;" horiz-adv-x="970" d="M102 420l248 250l-248 250l134 133l249 -250l248 250l135 -133l-250 -250l250 -250l-133 -133l-250 248l-249 -248z" />
<glyph unicode="&#xd8;" horiz-adv-x="1712" d="M92 731q0 213 104 389t279 274.5t381 98.5q248 0 447 -141l94 110h182l-172 -200q101 -104 157 -240t56 -291q0 -213 -104 -388.5t-279 -273.5t-381 -98q-243 0 -436 133l-88 -104h-182l163 193q-104 104 -162.5 241.5t-58.5 296.5zM342 731q0 -204 127 -356l682 796 q-132 95 -295 95q-147 0 -265.5 -74t-183.5 -196t-65 -265zM571 283q125 -86 285 -86q147 0 265.5 73.5t183.5 195.5t65 265q0 196 -121 346z" />
<glyph unicode="&#xd9;" horiz-adv-x="1509" d="M184 590v872h228v-868q0 -103 28.5 -181.5t77.5 -124.5t109 -68.5t129 -22.5t129 22.5t109 68.5t77.5 124.5t28.5 181.5v868h225v-872q0 -155 -42.5 -275t-119.5 -194.5t-179.5 -112t-227.5 -37.5t-228 37.5t-180.5 112t-120.5 194.5t-43 275zM524 1825q0 36 20.5 67.5 t57.5 44.5q38 11 43 11q60 0 98 -47q124 -146 242 -279l-72 -74q-296 154 -327 168q-29 14 -45.5 45.5t-16.5 63.5z" />
<glyph unicode="&#xda;" horiz-adv-x="1509" d="M184 590v872h228v-868q0 -103 28.5 -181.5t77.5 -124.5t109 -68.5t129 -22.5t129 22.5t109 68.5t77.5 124.5t28.5 181.5v868h225v-872q0 -155 -42.5 -275t-119.5 -194.5t-179.5 -112t-227.5 -37.5t-228 37.5t-180.5 112t-120.5 194.5t-43 275zM526 1622q36 39 79 88.5 t93 107t72 83.5q38 47 98 47q4 0 43 -11q35 -13 55.5 -45t20.5 -67q0 -32 -15 -63.5t-44 -45.5l-328 -168z" />
<glyph unicode="&#xdb;" horiz-adv-x="1509" d="M184 590v872h228v-868q0 -103 28.5 -181.5t77.5 -124.5t109 -68.5t129 -22.5t129 22.5t109 68.5t77.5 124.5t28.5 181.5v868h225v-872q0 -155 -42.5 -275t-119.5 -194.5t-179.5 -112t-227.5 -37.5t-228 37.5t-180.5 112t-120.5 194.5t-43 275zM469 1610l197 305h180 l196 -305l-96 -60l-190 222l-191 -222z" />
<glyph unicode="&#xdc;" horiz-adv-x="1509" d="M184 590v872h228v-868q0 -103 28.5 -181.5t77.5 -124.5t109 -68.5t129 -22.5t129 22.5t109 68.5t77.5 124.5t28.5 181.5v868h225v-872q0 -155 -42.5 -275t-119.5 -194.5t-179.5 -112t-227.5 -37.5t-228 37.5t-180.5 112t-120.5 194.5t-43 275zM389 1749q0 62 42.5 105.5 t103.5 43.5t105 -44t44 -105t-43.5 -104t-105.5 -43q-61 0 -103.5 42.5t-42.5 104.5zM829 1749q0 62 42.5 105.5t103.5 43.5t105 -44t44 -105t-43.5 -104t-105.5 -43q-61 0 -103.5 42.5t-42.5 104.5z" />
<glyph unicode="&#xdd;" horiz-adv-x="1341" d="M20 1462h275l377 -612l375 612h274l-533 -852v-610h-235v610zM440 1622q36 39 79 88.5t93 107t72 83.5q38 47 98 47q4 0 43 -11q35 -13 55.5 -45t20.5 -67q0 -32 -15 -63.5t-44 -45.5l-328 -168z" />
<glyph unicode="&#xde;" horiz-adv-x="1286" d="M184 0v1462h232v-313h295q101 0 184 -26t137.5 -69t92 -99.5t53.5 -115t16 -118.5q0 -87 -30.5 -163t-89 -134.5t-152 -92.5t-211.5 -34h-295v-297h-232zM416 520h280q123 0 200 49t77 152q0 40 -15 75t-46 65.5t-86.5 48.5t-129.5 18h-280v-408z" />
<glyph unicode="&#xdf;" horiz-adv-x="1142" d="M160 0v1133q0 99 34 179.5t91.5 131t130.5 77.5t153 27q171 0 280 -106t109 -256q0 -71 -17 -130t-41 -97.5t-48.5 -72t-41.5 -70t-17 -75.5q0 -32 23 -61.5t58 -51.5t75.5 -52.5t75.5 -63t58 -84.5t23 -115q0 -153 -120.5 -243t-311.5 -90q-117 0 -215 43l55 192 q68 -31 145 -31q87 0 143 41t56 99q0 40 -23 72t-57 52.5t-74.5 47.5t-74.5 55t-57 77.5t-23 112.5q0 52 18.5 100t45.5 86l54 76t45.5 85t18.5 98q0 67 -44.5 110t-115.5 43q-78 0 -135 -54t-57 -152v-1133h-219z" />
<glyph unicode="&#xe0;" d="M72 475q0 134 64.5 248.5t177 182t245.5 67.5q156 0 279 -115l92 92h125v-737h84v-213h-209l-92 92q-110 -115 -277 -115q-134 0 -247 68t-177.5 182.5t-64.5 247.5zM295 475q0 -121 82 -204t201 -83q117 0 196.5 82.5t79.5 204.5t-79.5 204.5t-196.5 82.5 q-119 0 -201 -83t-82 -204zM324 1370q0 36 20.5 68t56.5 45q35 10 43 10q61 0 99 -47q147 -173 241 -279l-71 -73q-297 154 -328 168q-29 14 -45 45t-16 63z" />
<glyph unicode="&#xe1;" d="M72 475q0 134 64.5 248.5t177 182t245.5 67.5q156 0 279 -115l92 92h125v-737h84v-213h-209l-92 92q-110 -115 -277 -115q-134 0 -247 68t-177.5 182.5t-64.5 247.5zM295 475q0 -121 82 -204t201 -83q117 0 196.5 82.5t79.5 204.5t-79.5 204.5t-196.5 82.5 q-119 0 -201 -83t-82 -204zM342 1167q36 39 79 88.5t93 107t72 83.5q38 47 98 47q8 0 43 -10q35 -13 55.5 -45t20.5 -68q0 -32 -15.5 -63t-44.5 -45l-327 -168z" />
<glyph unicode="&#xe2;" d="M72 475q0 134 64.5 248.5t177 182t245.5 67.5q156 0 279 -115l92 92h125v-737h84v-213h-209l-92 92q-110 -115 -277 -115q-134 0 -247 68t-177.5 182.5t-64.5 247.5zM266 1157l197 305h180l197 -305l-97 -59l-190 221l-191 -221zM295 475q0 -121 82 -204t201 -83 q117 0 196.5 82.5t79.5 204.5t-79.5 204.5t-196.5 82.5q-119 0 -201 -83t-82 -204z" />
<glyph unicode="&#xe3;" d="M72 475q0 134 64.5 248.5t177 182t245.5 67.5q156 0 279 -115l92 92h125v-737h84v-213h-209l-92 92q-110 -115 -277 -115q-134 0 -247 68t-177.5 182.5t-64.5 247.5zM186 1212q2 7 7 19.5t24.5 43.5t44.5 55t70.5 43.5t99.5 19.5q60 0 165.5 -44t154.5 -44 q34 0 61.5 17.5t38.5 34.5l10 17l109 -61q-2 -8 -7 -21t-24.5 -45.5t-44 -58t-68 -46t-94.5 -20.5q-69 0 -179.5 45t-154.5 45q-39 0 -66 -18t-35 -36l-7 -17zM295 475q0 -121 82 -204t201 -83q117 0 196.5 82.5t79.5 204.5t-79.5 204.5t-196.5 82.5q-119 0 -201 -83 t-82 -204z" />
<glyph unicode="&#xe4;" d="M72 475q0 134 64.5 248.5t177 182t245.5 67.5q156 0 279 -115l92 92h125v-737h84v-213h-209l-92 92q-110 -115 -277 -115q-134 0 -247 68t-177.5 182.5t-64.5 247.5zM215 1266q0 62 42 105.5t103 43.5q62 0 106 -44t44 -105t-44 -104.5t-106 -43.5q-61 0 -103 43t-42 105 zM295 475q0 -121 82 -204t201 -83q117 0 196.5 82.5t79.5 204.5t-79.5 204.5t-196.5 82.5q-119 0 -201 -83t-82 -204zM655 1266q0 62 42.5 105.5t103.5 43.5t105 -43.5t44 -105.5q0 -61 -43.5 -104.5t-105.5 -43.5q-61 0 -103.5 43t-42.5 105z" />
<glyph unicode="&#xe5;" d="M72 475q0 134 64.5 248.5t177 182t245.5 67.5q156 0 279 -115l92 92h125v-737h84v-213h-209l-92 92q-110 -115 -277 -115q-134 0 -247 68t-177.5 182.5t-64.5 247.5zM295 475q0 -121 82 -204t201 -83q117 0 196.5 82.5t79.5 204.5t-79.5 204.5t-196.5 82.5 q-119 0 -201 -83t-82 -204zM354 1311q0 96 70 165.5t166 69.5t165.5 -69.5t69.5 -165.5q0 -95 -70 -165.5t-165 -70.5t-165.5 70.5t-70.5 165.5zM481 1311q0 -43 32.5 -75t76.5 -32q43 0 75.5 32t32.5 75q0 44 -32.5 76t-75.5 32q-44 0 -76.5 -32t-32.5 -76z" />
<glyph unicode="&#xe6;" horiz-adv-x="1789" d="M72 475q0 134 64.5 248.5t177 182t245.5 67.5q156 0 279 -115l92 92h63v-84q126 107 289 107q98 0 182.5 -39.5t140.5 -105t89 -151.5t35 -179l-80 -80h-611q9 -104 79.5 -170t166.5 -66q64 0 123.5 37t95.5 96l180 -98q-61 -104 -164 -172t-235 -68q-71 0 -149.5 29.5 t-141.5 75.5v-82h-63l-92 92q-110 -115 -277 -115q-134 0 -247 68t-177.5 182.5t-64.5 247.5zM295 475q0 -121 82 -204t201 -83q117 0 196.5 82.5t79.5 204.5t-79.5 204.5t-196.5 82.5q-119 0 -201 -83t-82 -204zM1049 592h462q-11 80 -76 133t-153 53q-87 0 -151.5 -52 t-81.5 -134z" />
<glyph unicode="&#xe7;" horiz-adv-x="968" d="M72 475q0 137 67.5 252t181.5 180.5t246 65.5q99 0 190.5 -39t139.5 -107l-152 -153q-31 38 -77.5 63t-100.5 25q-116 0 -195 -85.5t-79 -201.5q0 -115 79 -201t195 -86q101 0 181 91l170 -134q-121 -138 -287 -161l-17 -64q79 -8 134 -66t55 -145q0 -102 -75 -168.5 t-189 -66.5q-87 0 -154 45.5t-86 130.5q1 1 69.5 25t75.5 30q8 -32 32.5 -48.5t53.5 -16.5q33 0 57.5 18t24.5 49q0 37 -24 57.5t-66 20.5q-4 0 -13.5 -1t-14.5 -1l-62 96l12 115q-160 42 -266 175t-106 306z" />
<glyph unicode="&#xe8;" horiz-adv-x="1044" d="M72 473q0 133 59 247.5t166.5 183.5t239.5 69q98 0 182 -39.5t140 -105.5t88.5 -151.5t35.5 -178.5l-82 -80h-608q9 -104 79.5 -170t166.5 -66q64 0 123.5 37t95.5 96l180 -98q-61 -104 -164 -172t-235 -68q-133 0 -241 68.5t-167 182t-59 245.5zM303 592h461 q-11 80 -75.5 133t-151.5 53t-152 -52t-82 -134zM303 1370q0 36 20.5 68t57.5 45q35 10 43 10q60 0 98 -47q124 -146 242 -279l-72 -73q-296 154 -327 168q-29 14 -45.5 45t-16.5 63z" />
<glyph unicode="&#xe9;" horiz-adv-x="1044" d="M72 473q0 133 59 247.5t166.5 183.5t239.5 69q98 0 182 -39.5t140 -105.5t88.5 -151.5t35.5 -178.5l-82 -80h-608q9 -104 79.5 -170t166.5 -66q64 0 123.5 37t95.5 96l180 -98q-61 -104 -164 -172t-235 -68q-133 0 -241 68.5t-167 182t-59 245.5zM289 1167q47 52 140 160 t103 119q38 47 99 47q8 0 43 -10q35 -13 55.5 -45t20.5 -68q0 -32 -15.5 -63t-44.5 -45l-328 -168zM303 592h461q-11 80 -75.5 133t-151.5 53t-152 -52t-82 -134z" />
<glyph unicode="&#xea;" horiz-adv-x="1044" d="M72 473q0 133 59 247.5t166.5 183.5t239.5 69q98 0 182 -39.5t140 -105.5t88.5 -151.5t35.5 -178.5l-82 -80h-608q9 -104 79.5 -170t166.5 -66q64 0 123.5 37t95.5 96l180 -98q-61 -104 -164 -172t-235 -68q-133 0 -241 68.5t-167 182t-59 245.5zM223 1157l197 305h180 l197 -305l-97 -59l-190 221l-191 -221zM303 592h461q-11 80 -75.5 133t-151.5 53t-152 -52t-82 -134z" />
<glyph unicode="&#xeb;" horiz-adv-x="1044" d="M72 473q0 133 59 247.5t166.5 183.5t239.5 69q98 0 182 -39.5t140 -105.5t88.5 -151.5t35.5 -178.5l-82 -80h-608q9 -104 79.5 -170t166.5 -66q64 0 123.5 37t95.5 96l180 -98q-61 -104 -164 -172t-235 -68q-133 0 -241 68.5t-167 182t-59 245.5zM178 1266 q0 62 42.5 105.5t103.5 43.5q62 0 105.5 -43.5t43.5 -105.5q0 -61 -43.5 -104.5t-105.5 -43.5q-61 0 -103.5 43t-42.5 105zM303 592h461q-11 80 -75.5 133t-151.5 53t-152 -52t-82 -134zM618 1266q0 62 42.5 105.5t103.5 43.5q62 0 105.5 -43.5t43.5 -105.5 q0 -61 -43.5 -104.5t-105.5 -43.5q-61 0 -103.5 43t-42.5 105z" />
<glyph unicode="&#xec;" horiz-adv-x="546" d="M8 1370q0 36 20.5 68t57.5 45q35 10 43 10q60 0 98 -47q124 -146 242 -279l-72 -73q-296 154 -327 168q-29 14 -45.5 45t-16.5 63zM100 754v196h226l77 -78v-872h-219v754h-84z" />
<glyph unicode="&#xed;" horiz-adv-x="546" d="M8 1167q36 39 79 88.5t93 107t72 83.5q38 47 98 47q8 0 43 -10q35 -13 55.5 -45t20.5 -68q0 -32 -15 -63t-44 -45l-328 -168zM100 754v196h226l77 -78v-872h-219v754h-84z" />
<glyph unicode="&#xee;" horiz-adv-x="546" d="M-47 1157l197 305h180l196 -305l-96 -59l-190 221l-191 -221zM100 754v196h226l77 -78v-872h-219v754h-84z" />
<glyph unicode="&#xef;" horiz-adv-x="546" d="M-84 1266q0 62 42 105.5t103 43.5q62 0 106 -44t44 -105t-44 -104.5t-106 -43.5q-61 0 -103 43t-42 105zM100 754v196h226l77 -78v-872h-219v754h-84zM356 1266q0 62 42.5 105.5t103.5 43.5q62 0 105.5 -43.5t43.5 -105.5q0 -61 -43.5 -104.5t-105.5 -43.5 q-61 0 -103.5 43t-42.5 105z" />
<glyph unicode="&#xf0;" horiz-adv-x="1136" d="M72 475q0 138 68 252t183.5 179t251.5 65l-83 135l-175 -111l-81 135l174 109l-156 254h274l80 -131l170 104l82 -133l-170 -104l275 -445q100 -165 100 -309q0 -137 -68 -252.5t-181.5 -180.5t-246.5 -65q-100 0 -191.5 38.5t-158.5 104.5t-107 159t-40 196zM295 475 q0 -118 78.5 -202.5t195.5 -84.5q115 0 194 85t79 202t-78 201t-195 84q-118 0 -196 -83.5t-78 -201.5z" />
<glyph unicode="&#xf1;" horiz-adv-x="1134" d="M102 754h84v-754h220v604q0 66 53.5 110t136.5 44q78 0 125 -47t47 -138v-573h223v573q0 103 -28.5 181.5t-77.5 124t-108.5 68t-127.5 22.5q-150 0 -282 -107l-88 88h-177v-196zM166 1210q2 7 7 19.5t24.5 43.5t44.5 55t70.5 43.5t99.5 19.5q60 0 165 -44t154 -44 q34 0 61.5 17.5t38.5 34.5l11 17l108 -61q-2 -8 -7 -21t-24 -45.5t-43.5 -58t-68 -46t-94.5 -20.5q-69 0 -179.5 45t-154.5 45q-39 0 -66.5 -18t-34.5 -36l-8 -17z" />
<glyph unicode="&#xf2;" horiz-adv-x="1136" d="M72 475q0 103 40 195.5t107 158t158.5 104t191.5 38.5q133 0 246.5 -64.5t181.5 -179.5t68 -252t-68 -252.5t-181.5 -180.5t-246.5 -65q-100 0 -191.5 38.5t-158.5 104.5t-107 159t-40 196zM295 475q0 -118 78.5 -202.5t195.5 -84.5q115 0 194 85t79 202t-78 201t-195 84 q-118 0 -196 -83.5t-78 -201.5zM336 1370q0 36 20.5 68t57.5 45q35 10 43 10q60 0 98 -47q124 -146 242 -279l-72 -73q-297 154 -328 168q-29 14 -45 45t-16 63z" />
<glyph unicode="&#xf3;" horiz-adv-x="1136" d="M72 475q0 103 40 195.5t107 158t158.5 104t191.5 38.5q133 0 246.5 -64.5t181.5 -179.5t68 -252t-68 -252.5t-181.5 -180.5t-246.5 -65q-100 0 -191.5 38.5t-158.5 104.5t-107 159t-40 196zM295 475q0 -118 78.5 -202.5t195.5 -84.5q115 0 194 85t79 202t-78 201t-195 84 q-118 0 -196 -83.5t-78 -201.5zM338 1167q36 39 79 88.5t93 107t72 83.5q38 47 98 47q8 0 43 -10q35 -13 55.5 -45t20.5 -68q0 -32 -15.5 -63t-44.5 -45l-327 -168z" />
<glyph unicode="&#xf4;" horiz-adv-x="1136" d="M72 475q0 103 40 195.5t107 158t158.5 104t191.5 38.5q133 0 246.5 -64.5t181.5 -179.5t68 -252t-68 -252.5t-181.5 -180.5t-246.5 -65q-100 0 -191.5 38.5t-158.5 104.5t-107 159t-40 196zM281 1157l196 305h180l197 -305l-96 -59l-191 221l-190 -221zM295 475 q0 -118 78.5 -202.5t195.5 -84.5q115 0 194 85t79 202t-78 201t-195 84q-118 0 -196 -83.5t-78 -201.5z" />
<glyph unicode="&#xf5;" horiz-adv-x="1136" d="M72 475q0 103 40 195.5t107 158t158.5 104t191.5 38.5q133 0 246.5 -64.5t181.5 -179.5t68 -252t-68 -252.5t-181.5 -180.5t-246.5 -65q-100 0 -191.5 38.5t-158.5 104.5t-107 159t-40 196zM178 1210q2 7 7 19.5t24.5 43.5t44.5 55t70.5 43.5t99.5 19.5q60 0 165 -44 t154 -44q34 0 61.5 17.5t38.5 34.5l11 17l109 -61q-2 -8 -7 -21t-24.5 -45.5t-44 -58t-68 -46t-94.5 -20.5q-69 0 -179.5 45t-154.5 45q-39 0 -66 -18t-35 -36l-7 -17zM295 475q0 -118 78.5 -202.5t195.5 -84.5q115 0 194 85t79 202t-78 201t-195 84q-118 0 -196 -83.5 t-78 -201.5z" />
<glyph unicode="&#xf6;" horiz-adv-x="1136" d="M72 475q0 103 40 195.5t107 158t158.5 104t191.5 38.5q133 0 246.5 -64.5t181.5 -179.5t68 -252t-68 -252.5t-181.5 -180.5t-246.5 -65q-100 0 -191.5 38.5t-158.5 104.5t-107 159t-40 196zM199 1266q0 62 42 105.5t103 43.5q62 0 106 -44t44 -105t-44 -104.5t-106 -43.5 q-61 0 -103 43t-42 105zM295 475q0 -118 78.5 -202.5t195.5 -84.5q115 0 194 85t79 202t-78 201t-195 84q-118 0 -196 -83.5t-78 -201.5zM639 1266q0 62 42 105.5t103 43.5q62 0 106 -44t44 -105t-44 -104.5t-106 -43.5q-61 0 -103 43t-42 105z" />
<glyph unicode="&#xf7;" horiz-adv-x="1093" d="M102 485v199h889v-199h-889zM395 258q0 62 43.5 106t106.5 44t107 -44t44 -106q0 -64 -44 -108t-107 -44t-106.5 44t-43.5 108zM395 911q0 63 43.5 107.5t106.5 44.5t107 -44.5t44 -107.5t-44 -107t-107 -44t-106.5 44t-43.5 107z" />
<glyph unicode="&#xf8;" horiz-adv-x="1136" d="M72 0l125 145q-125 141 -125 330q0 103 40 195.5t107 158t158.5 104t191.5 38.5q146 0 265 -78l47 57h182l-125 -145q127 -140 127 -330q0 -137 -68 -252.5t-181.5 -180.5t-246.5 -65q-144 0 -268 78l-47 -55h-182zM295 475q0 -90 45 -160l352 414q-57 31 -123 31 q-118 0 -196 -83.5t-78 -201.5zM440 221q64 -33 129 -33q115 0 194 85t79 202q0 91 -47 162z" />
<glyph unicode="&#xf9;" horiz-adv-x="1107" d="M143 414v536h224v-536q0 -109 53.5 -167.5t134.5 -58.5t134.5 58.5t53.5 167.5v536h222v-536q0 -136 -57.5 -237t-149.5 -150.5t-203 -49.5q-112 0 -204 49.5t-150 150.5t-58 237zM324 1370q0 36 20.5 68t56.5 45q35 10 43 10q61 0 99 -47q147 -173 241 -279l-71 -73 q-297 154 -328 168q-29 14 -45 45t-16 63z" />
<glyph unicode="&#xfa;" horiz-adv-x="1107" d="M143 414v536h224v-536q0 -109 53.5 -167.5t134.5 -58.5t134.5 58.5t53.5 167.5v536h222v-536q0 -136 -57.5 -237t-149.5 -150.5t-203 -49.5q-112 0 -204 49.5t-150 150.5t-58 237zM324 1167q47 52 140 160t103 119q38 47 99 47q8 0 43 -10q35 -13 55 -45t20 -68 q0 -32 -15 -63t-44 -45l-328 -168z" />
<glyph unicode="&#xfb;" horiz-adv-x="1107" d="M143 414v536h224v-536q0 -109 53.5 -167.5t134.5 -58.5t134.5 58.5t53.5 167.5v536h222v-536q0 -136 -57.5 -237t-149.5 -150.5t-203 -49.5q-112 0 -204 49.5t-150 150.5t-58 237zM268 1157l197 305h180l197 -305l-97 -59l-190 221l-190 -221z" />
<glyph unicode="&#xfc;" horiz-adv-x="1107" d="M143 414v536h224v-536q0 -109 53.5 -167.5t134.5 -58.5t134.5 58.5t53.5 167.5v536h222v-536q0 -136 -57.5 -237t-149.5 -150.5t-203 -49.5q-112 0 -204 49.5t-150 150.5t-58 237zM197 1266q0 62 42 105.5t103 43.5q62 0 106 -44t44 -105t-44 -104.5t-106 -43.5 q-61 0 -103 43t-42 105zM637 1266q0 62 42 105.5t103 43.5q62 0 106 -44t44 -105t-44 -104.5t-106 -43.5q-61 0 -103 43t-42 105z" />
<glyph unicode="&#xfd;" horiz-adv-x="1073" d="M31 950h221l287 -743h22l258 743h223l-518 -1462h-223l180 512h-90zM338 1167q36 39 79 88.5t93 107t72 83.5q38 47 98 47q8 0 43 -10q35 -13 55.5 -45t20.5 -68q0 -32 -15.5 -63t-44.5 -45l-327 -168z" />
<glyph unicode="&#xfe;" horiz-adv-x="1239" d="M164 -512v1974l74 74h145v-678q115 115 276 115q133 0 246 -67.5t177.5 -182t64.5 -248.5q0 -133 -64.5 -247.5t-177.5 -182.5t-246 -68q-163 0 -276 113v-602h-219zM365 475q0 -122 80 -204.5t198 -82.5q119 0 201 83t82 204t-82 204t-201 83q-118 0 -198 -82.5 t-80 -204.5z" />
<glyph unicode="&#xff;" horiz-adv-x="1073" d="M31 950h221l287 -743h22l258 743h223l-518 -1462h-223l180 512h-90zM158 1266q0 62 43.5 106.5t103.5 44.5q61 0 105.5 -44.5t44.5 -106.5q0 -61 -44 -104.5t-106 -43.5q-60 0 -103.5 43.5t-43.5 104.5zM598 1266q0 62 43.5 106.5t103.5 44.5q61 0 105.5 -44.5 t44.5 -106.5q0 -61 -44 -104.5t-106 -43.5q-60 0 -103.5 43.5t-43.5 104.5z" />
<glyph unicode="&#x152;" horiz-adv-x="2056" d="M92 731q0 213 104 389t279 274.5t381 98.5q106 0 211 -31h877v-221h-648v-373h602v-221h-602v-424h648v-223h-875q-110 -29 -213 -29q-206 0 -381 98t-279 273.5t-104 388.5zM342 731q0 -143 65 -265t183.5 -195.5t265.5 -73.5q113 0 211 45v979q-98 45 -211 45 q-147 0 -265.5 -74t-183.5 -196t-65 -265z" />
<glyph unicode="&#x153;" horiz-adv-x="1767" d="M72 475q0 103 40 195.5t107 158t158.5 104t191.5 38.5q101 0 192.5 -39.5t162.5 -110.5q64 71 150 111.5t186 40.5q98 0 182 -39.5t140 -105.5t88.5 -151.5t35.5 -178.5l-82 -80h-610q10 -104 81 -170t165 -66q65 0 125 37t96 96l178 -98q-60 -104 -163 -172t-236 -68 q-198 0 -338 150q-68 -71 -160 -110.5t-193 -39.5q-100 0 -191.5 38.5t-158.5 104.5t-107 159t-40 196zM295 475q0 -118 78.5 -202.5t195.5 -84.5q115 0 194 85t79 202t-78 201t-195 84q-118 0 -196 -83.5t-78 -201.5zM1024 592h463q-11 80 -75.5 133t-151.5 53t-152 -52 t-84 -134z" />
<glyph unicode="&#x178;" horiz-adv-x="1341" d="M20 1462h275l377 -612l375 612h274l-533 -852v-610h-235v610zM299 1778q0 62 42 105.5t103 43.5q62 0 106 -44t44 -105t-44 -104.5t-106 -43.5q-61 0 -103 43t-42 105zM739 1778q0 62 42.5 105.5t103.5 43.5t105 -43.5t44 -105.5q0 -61 -43.5 -104.5t-105.5 -43.5 q-61 0 -103.5 43t-42.5 105z" />
<glyph unicode="&#x2c6;" horiz-adv-x="591" d="M8 1174l197 305h180l197 -305l-97 -60l-190 221l-191 -221z" />
<glyph unicode="&#x2dc;" horiz-adv-x="882" d="M57 1210q2 7 7 19.5t24.5 43.5t44.5 55t70.5 43.5t99.5 19.5q60 0 165.5 -44t154.5 -44q34 0 61.5 17.5t37.5 34.5l11 17l109 -61q-2 -8 -7 -21t-24.5 -45.5t-44 -58t-68 -46t-94.5 -20.5q-69 0 -179.5 45t-154.5 45q-39 0 -66 -18t-34 -36l-8 -17z" />
<glyph unicode="&#x2000;" horiz-adv-x="974" />
<glyph unicode="&#x2001;" horiz-adv-x="1948" />
<glyph unicode="&#x2002;" horiz-adv-x="974" />
<glyph unicode="&#x2003;" horiz-adv-x="1948" />
<glyph unicode="&#x2004;" horiz-adv-x="649" />
<glyph unicode="&#x2005;" horiz-adv-x="487" />
<glyph unicode="&#x2006;" horiz-adv-x="324" />
<glyph unicode="&#x2007;" horiz-adv-x="324" />
<glyph unicode="&#x2008;" horiz-adv-x="243" />
<glyph unicode="&#x2009;" horiz-adv-x="389" />
<glyph unicode="&#x200a;" horiz-adv-x="108" />
<glyph unicode="&#x2010;" horiz-adv-x="847" d="M127 457v196h594v-196h-594z" />
<glyph unicode="&#x2011;" horiz-adv-x="847" d="M127 457v196h594v-196h-594z" />
<glyph unicode="&#x2012;" horiz-adv-x="847" d="M127 457v196h594v-196h-594z" />
<glyph unicode="&#x2013;" horiz-adv-x="1150" d="M82 457v196h987v-196h-987z" />
<glyph unicode="&#x2014;" horiz-adv-x="1843" d="M82 457v196h1679v-196h-1679z" />
<glyph unicode="&#x2018;" horiz-adv-x="462" d="M0 995l285 541h178l-205 -541h-258z" />
<glyph unicode="&#x2019;" horiz-adv-x="362" d="M0 995l207 541h256l-285 -541h-178z" />
<glyph unicode="&#x201a;" horiz-adv-x="432" d="M-31 -338l207 541h256l-285 -541h-178z" />
<glyph unicode="&#x201c;" horiz-adv-x="739" d="M0 999l285 541h178l-207 -541h-256zM365 999l284 541h178l-206 -541h-256z" />
<glyph unicode="&#x201d;" horiz-adv-x="698" d="M0 999l207 541h256l-285 -541h-178zM365 999l206 541h256l-284 -541h-178z" />
<glyph unicode="&#x201e;" horiz-adv-x="798" d="M-31 -338l207 541h256l-285 -541h-178zM336 -338l207 541h256l-285 -541h-178z" />
<glyph unicode="&#x2022;" horiz-adv-x="702" d="M102 530q0 103 73 177.5t177 74.5q102 0 175 -74.5t73 -177.5t-72.5 -175t-175.5 -72q-104 0 -177 72t-73 175z" />
<glyph unicode="&#x2026;" horiz-adv-x="1755" d="M102 131q0 66 47 114t113 48t114 -48t48 -114t-48 -113t-114 -47t-113 47t-47 113zM717 131q0 66 47 114t113 48t113.5 -48t47.5 -114t-47.5 -113t-113.5 -47t-113 47t-47 113zM1331 131q0 66 47 114t113 48t114 -48t48 -114t-48 -113t-114 -47t-113 47t-47 113z" />
<glyph unicode="&#x202f;" horiz-adv-x="389" />
<glyph unicode="&#x2039;" horiz-adv-x="659" d="M61 516l363 424h154v-68l-246 -356l246 -356v-68h-154z" />
<glyph unicode="&#x203a;" horiz-adv-x="659" d="M82 92v68l246 356l-246 356v68h154l362 -424l-362 -424h-154z" />
<glyph unicode="&#x205f;" horiz-adv-x="487" />
<glyph unicode="&#x20ac;" horiz-adv-x="1232" d="M92 494v168h84v77h-84v170h107q25 111 76 203t132.5 165.5t202.5 115t271 41.5q157 0 290 -54l-94 -200q-68 37 -196 37q-181 0 -293.5 -82.5t-157.5 -225.5h397v-170h-426v-77h426v-168h-397q45 -143 157.5 -224.5t293.5 -81.5q115 0 204 27l82 -192q-132 -52 -286 -52 q-121 0 -223 27t-177 74t-133 114t-94 143.5t-55 164.5h-107z" />
<glyph unicode="&#x2122;" horiz-adv-x="1617" d="M41 1303v159h614v-159h-225v-695h-166v695h-223zM705 608v854h151l264 -432l262 432h154v-854h-166v514l-158 -256h-184l-158 256v-514h-165z" />
<glyph unicode="&#xe000;" horiz-adv-x="952" d="M0 0v952h952v-952h-952z" />
</font>
</defs>
</svg>
