<svg xmlns="http://www.w3.org/2000/svg" xmlns:xlink="http://www.w3.org/1999/xlink" version="1.1" x="0px" y="0px" viewBox="0 0 100 125" enable-background="new 0 0 100 100" xml:space="preserve"><path d="M20.171,34.555V77l13.213-13.208V34.555H20.171z M19.086,80.706c-0.14,0-0.281-0.027-0.416-0.083  c-0.406-0.167-0.669-0.564-0.669-1.002V33.469c0-0.6,0.485-1.085,1.085-1.085h15.383c0.6,0,1.086,0.485,1.086,1.085v30.772  c0,0.289-0.115,0.563-0.318,0.768L19.853,80.388C19.646,80.596,19.368,80.706,19.086,80.706"/><path d="M21.706,32.384h43.082L78,19.172H34.919L21.706,32.384z M65.236,34.555h-46.15c-0.439,0-0.836-0.264-1.003-0.67  c-0.169-0.406-0.075-0.872,0.235-1.184l15.384-15.383c0.202-0.204,0.479-0.317,0.767-0.317H80.62c0.438,0,0.836,0.264,1.003,0.67  c0.169,0.405,0.075,0.872-0.234,1.183L66.004,34.236C65.801,34.44,65.525,34.555,65.236,34.555"/><path d="M21.706,78.535h43.082L78,65.322H34.919L21.706,78.535z M65.236,80.706h-46.15c-0.439,0-0.836-0.264-1.003-0.67  c-0.169-0.406-0.075-0.872,0.235-1.183L33.702,63.47c0.202-0.204,0.479-0.317,0.767-0.317H80.62c0.438,0,0.836,0.264,1.003,0.669  c0.169,0.407,0.075,0.873-0.234,1.184L66.004,80.388C65.801,80.591,65.525,80.706,65.236,80.706"/><path d="M66.322,63.151h13.213V20.708l-13.213,13.21V63.151z M80.621,65.322H65.237c-0.601,0-1.086-0.485-1.086-1.085V33.47  c0-0.289,0.115-0.564,0.317-0.769L79.854,17.32c0.311-0.311,0.777-0.406,1.184-0.235c0.405,0.167,0.668,0.564,0.668,1.003v46.149  C81.705,64.837,81.221,65.322,80.621,65.322"/></svg>